<svg xmlns="http://www.w3.org/2000/svg" viewBox="0 0 346.32 335.34"><defs><style>.cls-1{fill:#f1f2f2;}.cls-2{fill:#d7dce0;}.cls-3{fill:#3a3a3a;}</style></defs><g id="Layer_3" data-name="Layer 3"><ellipse class="cls-1" cx="173.16" cy="167.67" rx="173.16" ry="167.67"/></g><g id="Layer_5" data-name="Layer 5"><path class="cls-2" d="M255.33,273.2c-5-.25-9.18,2.88-11.78,7.4-4.08,7.07-2.67,15.44,2,21.84,9.28,12.82,28.78,21.7,43.92,24.84,34.85,7.22,72.56-.39,100.48-22.84,8.5-6.84,16.91-16,16.45-27.64-.38-9.57-8.91-18.54-18.21-20.58a8.19,8.19,0,0,0-1.09-.16c7.83-9,14-19.28,17.2-31.13,5.2-19.43,3.21-39,1-58.63-.05-3-.19-6-.48-8.93A23,23,0,0,0,404,153l-.54-1.69a2.26,2.26,0,0,0-.31-1.39,1,1,0,0,0,.48-.59c.54-1.91-1.38-3.15-3.08-2.25a2.79,2.79,0,0,0-.62.48c-2.82-8.45-6.88-18.26-14.64-22.66-2.49-1.41-6.78.32-6.35,3.64,1,7.51,5.26,14,7.54,21.21a79.72,79.72,0,0,1,3.71,24,76.14,76.14,0,0,1-13.38,43.55c-9.5,13.85-25.22,24.75-39.57,33.1s-30.73,13.7-47.48,13.74c-9.54,0-18.44-.64-27.64-3.33-8.79-2.58-16.66-7-25.25-10.09a.89.89,0,0,0-1.09,1.09C239.46,260.72,246.81,267.77,255.33,273.2Zm4.84,2.85c2.58,1.41,5.22,2.68,7.85,3.83a33,33,0,0,0,3.35,3.1c-3.82-1.57-7.37-3.89-11.36-4.89A3.09,3.09,0,0,0,260.17,276.05Z" transform="translate(-139.74 -40.12)"/><path class="cls-2" d="M311.35,131v55.22h0l54.22,30.32C361.79,183.67,339,146.9,311.35,131Z" transform="translate(-139.74 -40.12)"/><path class="cls-3" d="M257.53,213.54l53.8-27.35h0V131C284.58,146.42,262.29,181.47,257.53,213.54Z" transform="translate(-139.74 -40.12)"/><path class="cls-3" d="M309.53,293.78a102.15,102.15,0,1,0,0-204.29c-1.06,0-2.1,0-3.12.05s-1.81.06-2.68.12c-1.38.07-2.75.18-4.13.32a101.13,101.13,0,0,0-28.37,7c-.48.19-1,.37-1.43.57l-.21.08c-1.51.64-3,1.33-4.46,2a102.15,102.15,0,0,0,44.4,194.14ZM271.89,103.34l.16-.07a95.15,95.15,0,0,1,32-7.44c1.71-.11,3.54-.16,5.44-.16a95.9,95.9,0,1,1-37.64,7.67Z" transform="translate(-139.74 -40.12)"/><path class="cls-3" d="M256.13,210.79l5.56-2.83c6-28,24.58-56.5,46.57-71.4V131a3.07,3.07,0,0,1,1.66-2.73l-.12,0c-27.09,15.63-50.35,51.3-55.32,84.8v0A3.06,3.06,0,0,1,256.13,210.79Z" transform="translate(-139.74 -40.12)"/><path class="cls-3" d="M314.44,131v5.6c22.68,15.4,41.82,45.55,47.12,74.17l5.51,3.08a3.11,3.11,0,0,1,1.57,2.4v-.05c-3.92-34-27.89-71.8-55.75-87.88l-.11,0A3.07,3.07,0,0,1,314.44,131Z" transform="translate(-139.74 -40.12)"/><path class="cls-3" d="M368.49,217.5a2.81,2.81,0,0,1-.22.51A2.53,2.53,0,0,0,368.49,217.5Z" transform="translate(-139.74 -40.12)"/><path class="cls-3" d="M368.62,217c0,.13-.05.26-.08.39C368.57,217.22,368.6,217.09,368.62,217Z" transform="translate(-139.74 -40.12)"/><path class="cls-3" d="M255.29,215.65l-.11-.11Z" transform="translate(-139.74 -40.12)"/><path class="cls-3" d="M367.75,218.71a3.06,3.06,0,0,1-.58.44A3.16,3.16,0,0,0,367.75,218.71Z" transform="translate(-139.74 -40.12)"/><path class="cls-3" d="M368.64,216.38a2.54,2.54,0,0,1,0,.39A2.54,2.54,0,0,0,368.64,216.38Z" transform="translate(-139.74 -40.12)"/><path class="cls-3" d="M364.06,219.22l-5.27-2.95c-28.47,12.12-68.14,11.12-94.71-2.59l-5.15,2.62a3.07,3.07,0,0,1-3.1-.2l.07.07c.66.4,1.32.81,2,1.19,15.5,8.94,35.91,13.46,56.36,13.46,18.82,0,37.67-3.83,52.73-11.55l.08-.05a3.13,3.13,0,0,1-1.5.39A3,3,0,0,1,364.06,219.22Z" transform="translate(-139.74 -40.12)"/><path class="cls-3" d="M312.07,128l.19.06Z" transform="translate(-139.74 -40.12)"/><path class="cls-3" d="M254.75,214.88s0-.1-.05-.15S254.73,214.83,254.75,214.88Z" transform="translate(-139.74 -40.12)"/><path class="cls-3" d="M254.51,214.1a1.13,1.13,0,0,1,0-.18A1.13,1.13,0,0,0,254.51,214.1Z" transform="translate(-139.74 -40.12)"/><path class="cls-3" d="M368.24,218.07a3.53,3.53,0,0,1-.47.61A3.1,3.1,0,0,0,368.24,218.07Z" transform="translate(-139.74 -40.12)"/><path class="cls-3" d="M310.43,128l.19-.06Z" transform="translate(-139.74 -40.12)"/><path class="cls-3" d="M308.26,131v53.32l1.67-.85a3.19,3.19,0,0,1,3.1.16l1.41.79V131a3.07,3.07,0,0,0-1.66-2.72,3.38,3.38,0,0,0-.52-.22l-.19-.06a3,3,0,0,0-1.45,0l-.19.06a3.89,3.89,0,0,0-.51.21A3.07,3.07,0,0,0,308.26,131Z" transform="translate(-139.74 -40.12)"/><path class="cls-3" d="M254.48,213.92a1.13,1.13,0,0,0,0,.18,2.85,2.85,0,0,0,.19.63c0,.05,0,.1.05.15l0,.06a3.13,3.13,0,0,0,.4.6l.11.11a2.81,2.81,0,0,0,.54.45,3.07,3.07,0,0,0,3.1.2l5.15-2.62,47.18-24,47.53,26.57,5.27,2.95a3,3,0,0,0,1.5.39,3.13,3.13,0,0,0,1.5-.39l.11-.07a3.06,3.06,0,0,0,.58-.44l0,0a3.53,3.53,0,0,0,.47-.61s0,0,0,0,0,0,0,0a2.81,2.81,0,0,0,.22-.51c0-.05,0-.1.05-.15s.06-.26.08-.39,0-.13,0-.19a2.54,2.54,0,0,0,0-.39v-.16a3.11,3.11,0,0,0-1.57-2.4l-5.51-3.08-47.12-26.35L313,183.6a3.19,3.19,0,0,0-3.1-.16l-1.67.85L261.69,208l-5.56,2.83a3.06,3.06,0,0,0-1.65,2.33A2.68,2.68,0,0,0,254.48,213.92Z" transform="translate(-139.74 -40.12)"/></g></svg>