<svg id="Layer_1" data-name="Layer 1" xmlns="http://www.w3.org/2000/svg" viewBox="0 0 377.81 160.57"><defs><style>.cls-1{fill:#fff;}.cls-2{font-size:130px;fill:#27aae1;font-family:Arial-BoldMT, Arial;font-weight:700;}.cls-3{fill:#414042;}</style></defs><rect class="cls-1" x="41.43" y="17.1" width="294.9" height="121.63"/><rect class="cls-1" x="317.18" y="24.42" width="38.29" height="103.61"/><rect class="cls-1" x="22.67" y="29.49" width="30.41" height="98.55"/><text class="cls-2" transform="translate(0 111.53)">{</text><text class="cls-2" transform="translate(327.22 111.63)">}</text><path class="cls-3" d="M73,81.2h8.7v5.18a13,13,0,0,1,4.58-4.32,12.68,12.68,0,0,1,6.41-1.66,13.44,13.44,0,0,1,10.42,4.82Q107.4,90,107.4,98.63q0,8.84-4.32,13.73a13.46,13.46,0,0,1-10.46,4.9,11.85,11.85,0,0,1-5.3-1.17,17.8,17.8,0,0,1-5-4v17.76H73Zm9.23,17c0,4,.78,6.89,2.36,8.78a7.18,7.18,0,0,0,5.74,2.84,6.75,6.75,0,0,0,5.41-2.6q2.16-2.61,2.16-8.55,0-5.55-2.22-8.24a6.92,6.92,0,0,0-5.52-2.69,7.14,7.14,0,0,0-5.67,2.64Q82.23,93.05,82.23,98.23Z" transform="translate(-10.78 -19.4)"/><path class="cls-3" d="M113.94,118.78l10.66,1.3a3.63,3.63,0,0,0,1.22,2.56,7.07,7.07,0,0,0,4.19,1,10.9,10.9,0,0,0,5.48-1.09,4.65,4.65,0,0,0,1.86-2.36,14.45,14.45,0,0,0,.43-4.28v-5.15q-4.18,5.72-10.56,5.71a13,13,0,0,1-11.26-6,20.42,20.42,0,0,1-3.25-11.82q0-8.86,4.27-13.55a13.74,13.74,0,0,1,10.6-4.68q6.54,0,10.79,5.75v-5h8.74v31.64a31.75,31.75,0,0,1-1,9.33,11.64,11.64,0,0,1-2.89,4.85,12.82,12.82,0,0,1-5,2.75,26,26,0,0,1-7.86,1q-9,0-12.71-3.07a9.62,9.62,0,0,1-3.76-7.79C113.9,119.6,113.91,119.23,113.94,118.78Zm8.33-20.68q0,5.61,2.18,8.22a6.73,6.73,0,0,0,5.36,2.6,7.43,7.43,0,0,0,5.78-2.67q2.35-2.67,2.35-7.92,0-5.47-2.25-8.13A7.19,7.19,0,0,0,130,87.54a6.88,6.88,0,0,0-5.52,2.61C123,91.88,122.27,94.54,122.27,98.1Z" transform="translate(-10.78 -19.4)"/><path class="cls-3" d="M172.51,81.2v7.44h-6.38v14.21a36,36,0,0,0,.18,5,2.09,2.09,0,0,0,.84,1.18,2.6,2.6,0,0,0,1.57.46,11.93,11.93,0,0,0,3.75-.9l.8,7.24a18.55,18.55,0,0,1-7.37,1.4,11.79,11.79,0,0,1-4.55-.85,6.57,6.57,0,0,1-3-2.19,8.64,8.64,0,0,1-1.31-3.64,44.92,44.92,0,0,1-.3-6.57V88.64h-4.28V81.2h4.28v-7l9.36-5.44V81.2Z" transform="translate(-10.78 -19.4)"/><path class="cls-3" d="M174.57,81.2h9.92l8.44,25,8.23-25h9.66l-12.45,33.93-2.22,6.14a25.4,25.4,0,0,1-2.34,4.72,10.57,10.57,0,0,1-2.56,2.64,11.39,11.39,0,0,1-3.55,1.58,18.81,18.81,0,0,1-4.77.56,25.18,25.18,0,0,1-5.28-.56l-.83-7.31a20.46,20.46,0,0,0,4,.43,5.84,5.84,0,0,0,4.82-1.91,13.16,13.16,0,0,0,2.39-4.86Z" transform="translate(-10.78 -19.4)"/><path class="cls-3" d="M216.54,81.2h8.69v5.18a13.06,13.06,0,0,1,4.59-4.32,12.67,12.67,0,0,1,6.4-1.66,13.46,13.46,0,0,1,10.43,4.82q4.29,4.82,4.28,13.41,0,8.84-4.31,13.73a13.48,13.48,0,0,1-10.46,4.9,11.82,11.82,0,0,1-5.3-1.17,17.67,17.67,0,0,1-5-4v17.76h-9.33Zm9.23,17q0,5.94,2.35,8.78a7.2,7.2,0,0,0,5.75,2.84,6.75,6.75,0,0,0,5.41-2.6q2.16-2.61,2.16-8.55,0-5.55-2.23-8.24a6.89,6.89,0,0,0-5.51-2.69A7.17,7.17,0,0,0,228,90.41Q225.77,93.05,225.77,98.23Z" transform="translate(-10.78 -19.4)"/><path class="cls-3" d="M278.76,105.24l9.29,1.56a15.18,15.18,0,0,1-5.66,7.78,16.57,16.57,0,0,1-9.68,2.68q-9.19,0-13.61-6-3.48-4.81-3.48-12.16,0-8.76,4.58-13.72a15.08,15.08,0,0,1,11.59-5q7.86,0,12.41,5.2t4.35,15.92H265.18a9.41,9.41,0,0,0,2.26,6.46,7,7,0,0,0,5.37,2.3,5.69,5.69,0,0,0,3.69-1.19A7.37,7.37,0,0,0,278.76,105.24Zm.53-9.43c-.07-2.7-.76-4.76-2.09-6.16a6.42,6.42,0,0,0-4.85-2.11,6.49,6.49,0,0,0-5.05,2.22,8.63,8.63,0,0,0-2,6Z" transform="translate(-10.78 -19.4)"/><path class="cls-3" d="M328.5,116.46h-8.67v-5.18a14.1,14.1,0,0,1-5.1,4.5,13.13,13.13,0,0,1-5.92,1.48,13.45,13.45,0,0,1-10.41-4.9q-4.33-4.9-4.34-13.66,0-9,4.22-13.63a13.75,13.75,0,0,1,10.66-4.67,13.21,13.21,0,0,1,10.23,4.92V67.78h9.33ZM303.59,98.07q0,5.64,1.56,8.16a7.06,7.06,0,0,0,6.31,3.66,6.88,6.88,0,0,0,5.48-2.74q2.26-2.75,2.26-8.19c0-4-.73-7-2.19-8.75a6.93,6.93,0,0,0-5.61-2.67,7,7,0,0,0-5.57,2.64Q303.59,92.82,303.59,98.07Z" transform="translate(-10.78 -19.4)"/></svg>