<svg xmlns="http://www.w3.org/2000/svg" viewBox="0 0 346.32 335.34"><defs><style>.cls-1{fill:#f1f2f2;}.cls-2{fill:#d7dce0;}.cls-3{fill:#3a3a3a;}.cls-4{fill:#00aeef;}</style></defs><g id="Layer_3" data-name="Layer 3"><ellipse class="cls-1" cx="173.16" cy="167.67" rx="173.16" ry="167.67"/></g><g id="Layer_4" data-name="Layer 4"><path class="cls-2" d="M402.41,285.44c1.61-8,3.17-16.06,4.5-24.14a11.92,11.92,0,0,0,1.19-6.3l-.09-1.07a21.84,21.84,0,0,0-.4-2.59c4.84-3.66,5.12-11.94-.74-15.24-4-2.25-8.41-2-12.7-3.23-3.52-1-6.65-3-10.2-3.84a4.12,4.12,0,0,0-5.14,3.92,16.43,16.43,0,0,0,3.43,9.83,12.57,12.57,0,0,0-4.23,7.09c-1.45,7.53-2.68,15.06-3.82,22.64-.23,1.53-.87,3.72-1.29,5.81l-2.94.81c-14.22,3.9-28.91,7.09-42.87,11.83-7.12,2.41-14.26,5.29-21.13,8.35-3,1.33-6,2.95-9,4.1-3.44,1.29-5.24.71-8.39-.91-6.23-3.19-12.33-6.63-18.59-9.78-7-3.52-14.42-6-21.42-9.52-.38-.2-.85.31-.49.63,6.49,5.67,12.13,12.17,18.68,17.76,6,5.14,12,11.3,18.92,15.29,7.3,4.23,14.91,3.66,23,3.14a214.42,214.42,0,0,0,26.63-3.13c16.71-3.23,33.66-7.17,50.13-11.49C395.86,302.67,400.41,295.49,402.41,285.44Z" transform="translate(-139.74 -40.12)"/><path class="cls-2" d="M300.18,144.47c-1.21,4.43,1.69,8.44,4.95,11.07,8.13,6.55,20.14,8.44,30.21,6.59,9.31-1.7,20.69-7.54,26.76-14.95,3-3.65,5-9.29,2.47-13.75-2.36-4.2-8.29-5.69-12-2.68a31.93,31.93,0,0,0,5.33-11.25c1.57-6.71-.32-14-2.29-20.43-1-3.18-6.25-2.77-6,.82a43.49,43.49,0,0,1-2.2,16.17A40,40,0,0,1,339.51,128,23.3,23.3,0,0,1,335,131.6a27.07,27.07,0,0,1-11.93,1.89c-4.81-.16-10.88-2.77-14.48,1.42a4.18,4.18,0,0,0-1.07,3.5C303.93,138.2,301.08,141.17,300.18,144.47Zm10.38-1.83c3.08,1.87,7.83,2.11,11.84,2,8.81,1.2,18.69-3,25.21-8.49a29.62,29.62,0,0,0,2.94-2.89,7.06,7.06,0,0,0-.65,5.34c-.68.57-1.52,1.36-1.9,1.63-1.87,1.31-3.81,2.54-5.8,3.67a33.09,33.09,0,0,1-13.74,4.36,31.85,31.85,0,0,1-13.53-2c-1.16-.41-4.39-1.13-4.77-2.57C310.11,143.49,310.33,143.1,310.56,142.64Z" transform="translate(-139.74 -40.12)"/><polygon class="cls-3" points="223.73 250.13 243.4 207.76 243.4 92.67 223.73 135.05 223.73 250.13"/><path class="cls-4" d="M236.34,270.58l53.73,31V186.52l-53.73-31Zm25.59-73.92a12.63,12.63,0,0,1,5.71,9.89c0,3.65-2.56,5.12-5.71,3.3a12.62,12.62,0,0,1-5.72-9.89C256.21,196.31,258.77,194.84,261.93,196.66Zm0,25.18a12.63,12.63,0,0,1,5.71,9.9c0,3.64-2.56,5.12-5.71,3.29a12.62,12.62,0,0,1-5.72-9.89C256.21,221.5,258.77,220,261.93,221.84Zm0,25.19a12.63,12.63,0,0,1,5.71,9.89c0,3.64-2.56,5.12-5.71,3.3a12.62,12.62,0,0,1-5.72-9.9C256.21,246.68,258.77,245.21,261.93,247Z" transform="translate(-139.74 -40.12)"/><path class="cls-3" d="M233.84,155.44l0-.29Z" transform="translate(-139.74 -40.12)"/><path class="cls-3" d="M385,131.13a1.56,1.56,0,0,1,.16.2A1.56,1.56,0,0,0,385,131.13Z" transform="translate(-139.74 -40.12)"/><path class="cls-3" d="M385.48,131.93c0,.08,0,.16.07.24C385.53,132.09,385.5,132,385.48,131.93Z" transform="translate(-139.74 -40.12)"/><path class="cls-3" d="M385.27,131.5l.12.23Z" transform="translate(-139.74 -40.12)"/><path class="cls-3" d="M385.6,132.38a2.64,2.64,0,0,1,0,.28A2.64,2.64,0,0,0,385.6,132.38Z" transform="translate(-139.74 -40.12)"/><path class="cls-3" d="M236.34,153a2.5,2.5,0,0,1,2.5,2.5v4.33L287.57,188v-1.45a2.5,2.5,0,0,1,5,0v2.15L361,178.09v-2.92a2.5,2.5,0,1,1,5,0v.56l14.67-31.61V132.79a2.48,2.48,0,0,1,3.82-2.11l-.07-.05-24.81-14.32c-.06.58-.11,1.15-.19,1.72a32.13,32.13,0,0,1-.71,3.54l21.23,12.25-18.15,39.09-71.2,11-51-29.44,18.14-39.08L291,110.25a32.49,32.49,0,0,1,.45-3.43c.11-.59.24-1.18.37-1.76l-36.18,5.6a2.5,2.5,0,0,0-1.89,1.42l-19.67,42.37a.06.06,0,0,0,0,0A2.49,2.49,0,0,1,236.34,153Z" transform="translate(-139.74 -40.12)"/><path class="cls-3" d="M384.65,130.81l.19.16Z" transform="translate(-139.74 -40.12)"/><path class="cls-3" d="M233.9,155a2.25,2.25,0,0,1,.08-.24A2.25,2.25,0,0,0,233.9,155Z" transform="translate(-139.74 -40.12)"/><path class="cls-3" d="M289.48,304l-.15,0Z" transform="translate(-139.74 -40.12)"/><path class="cls-3" d="M363.9,292.71a3,3,0,0,1-.43,0,2.5,2.5,0,0,1-2.5-2.5v-2.14l-68.4,10.58v2.91a2.5,2.5,0,0,1-2.5,2.5,2.43,2.43,0,0,0,.38,0l73.4-11.35Z" transform="translate(-139.74 -40.12)"/><path class="cls-3" d="M365.45,291.76a1.34,1.34,0,0,1-.11.14A1.34,1.34,0,0,0,365.45,291.76Z" transform="translate(-139.74 -40.12)"/><path class="cls-3" d="M287.57,301.6v-4.33l-48.73-28.13V155.5a2.5,2.5,0,0,0-4.78-1,1,1,0,0,0-.08.22,2.25,2.25,0,0,0-.08.24l0,.2,0,.29V270.58a2.49,2.49,0,0,0,1.25,2.17l53.73,31,.09,0A2.51,2.51,0,0,1,287.57,301.6Z" transform="translate(-139.74 -40.12)"/><path class="cls-3" d="M365.05,292.17a.69.69,0,0,1-.13.11A.69.69,0,0,0,365.05,292.17Z" transform="translate(-139.74 -40.12)"/><path class="cls-3" d="M380.64,132.79V247.33L366,278.93v11.32a2.41,2.41,0,0,1-.29,1.14l.06-.08,19.67-42.37a2.56,2.56,0,0,0,.23-1.06V132.79a.69.69,0,0,0,0-.13,2.64,2.64,0,0,0,0-.28c0-.07,0-.14-.05-.21s-.05-.16-.07-.24l-.09-.2-.12-.23a1,1,0,0,0-.12-.17,1.56,1.56,0,0,0-.16-.2l-.15-.16-.19-.16-.19-.13a2.48,2.48,0,0,0-3.82,2.11Z" transform="translate(-139.74 -40.12)"/><path class="cls-3" d="M366,278.93V175.17a2.5,2.5,0,1,0-5,0V290.25a2.5,2.5,0,0,0,2.5,2.5,3,3,0,0,0,.43,0,2.52,2.52,0,0,0,1-.43.69.69,0,0,0,.13-.11,2.44,2.44,0,0,0,.29-.27,1.34,1.34,0,0,0,.11-.14,2.85,2.85,0,0,0,.23-.37,2.41,2.41,0,0,0,.29-1.14Z" transform="translate(-139.74 -40.12)"/><path class="cls-3" d="M292.57,301.6V186.52a2.5,2.5,0,0,0-5,0V301.6a2.51,2.51,0,0,0,1.34,2.21,2.63,2.63,0,0,0,.42.17l.15,0a2.8,2.8,0,0,0,.59.07A2.5,2.5,0,0,0,292.57,301.6Z" transform="translate(-139.74 -40.12)"/><path class="cls-3" d="M291,110.25c-.08.94-.12,1.88-.12,2.83a34.43,34.43,0,0,0,67.81,8.49,32.13,32.13,0,0,0,.71-3.54c.08-.57.13-1.14.19-1.72.1-1.07.17-2.14.17-3.23a34.44,34.44,0,0,0-67.94-8c-.13.58-.26,1.17-.37,1.76A32.49,32.49,0,0,0,291,110.25Zm34.32-26.61a29.48,29.48,0,0,1,29.44,29.44,28.18,28.18,0,0,1-.31,4.23,29.44,29.44,0,0,1-58.57-4.23,28.78,28.78,0,0,1,.49-5.35h0A29.41,29.41,0,0,1,325.31,83.64Z" transform="translate(-139.74 -40.12)"/><path class="cls-3" d="M260.68,212a7.65,7.65,0,0,0,3.81,1.11,5.41,5.41,0,0,0,2.72-.71,6.46,6.46,0,0,0,2.93-5.87,15.18,15.18,0,0,0-7-12.05,6.48,6.48,0,0,0-6.55-.4c-1.86,1.07-2.92,3.21-2.92,5.86A15.17,15.17,0,0,0,260.68,212Zm-1.55-13.59a.48.48,0,0,1,.24-.05,2.84,2.84,0,0,1,1.31.45,10.19,10.19,0,0,1,4.46,7.72c0,.95-.25,1.44-.42,1.54s-.73.07-1.54-.4a10.18,10.18,0,0,1-4.47-7.73C258.71,199,259,198.53,259.13,198.43Z" transform="translate(-139.74 -40.12)"/><path class="cls-3" d="M260.67,237.2a7.69,7.69,0,0,0,3.82,1.11,5.4,5.4,0,0,0,2.72-.7,6.46,6.46,0,0,0,2.93-5.87,15.18,15.18,0,0,0-7-12.06h0a5.94,5.94,0,0,0-9.47,5.46A15.18,15.18,0,0,0,260.67,237.2Zm-1.54-13.59a.49.49,0,0,1,.25-.05,2.77,2.77,0,0,1,1.3.45,10.19,10.19,0,0,1,4.46,7.73c0,.95-.25,1.44-.42,1.53s-.72.07-1.54-.4a10.18,10.18,0,0,1-4.47-7.73C258.71,224.2,259,223.71,259.13,223.61Z" transform="translate(-139.74 -40.12)"/><path class="cls-3" d="M263.18,244.87h0a5.94,5.94,0,0,0-9.47,5.45,15.17,15.17,0,0,0,7,12.07,7.65,7.65,0,0,0,3.81,1.11,5.44,5.44,0,0,0,2.72-.71,6.48,6.48,0,0,0,2.93-5.87A15.18,15.18,0,0,0,263.18,244.87Zm1.53,13.59c-.17.09-.72.07-1.53-.4a10.2,10.2,0,0,1-4.47-7.74c0-.94.25-1.42.42-1.52a.48.48,0,0,1,.24-.05,2.84,2.84,0,0,1,1.31.45,10.19,10.19,0,0,1,4.46,7.72C265.14,257.87,264.88,258.36,264.71,258.46Z" transform="translate(-139.74 -40.12)"/></g></svg>