<svg id="Layer_1" data-name="Layer 1" xmlns="http://www.w3.org/2000/svg" viewBox="0 0 346.32 335.34"><defs><style>.cls-1{fill:#f1f2f2;}.cls-2{fill:#d7dce0;}.cls-3{fill:#3a3a3a;}</style></defs><ellipse class="cls-1" cx="173.16" cy="167.67" rx="173.16" ry="167.67"/><path class="cls-2" d="M153.93,307.44c1.83,3.5,3.81,6.44,7.4,8.33,4.32,2.28,8.67,1.52,13.2.54,14.47-3.15,29-6.36,43.68-8.15a423.84,423.84,0,0,1,47.52-2.91c8.59-.07,16-10.53,10.5-18.31-4.41-6.24-8.82-12.49-13.32-18.67-3.74-5.12-10.3-7.85-16.25-4.26-11.25,6.8-26.41,7.24-39.3,9.07,1.47-.26,2.93-.5,4.35-.7,9.77-1.38,22-1.31,25-12.6,3-10.92,2.8-23.54,3.05-34.8.14-5.9.1-11.82-.1-17.72s.74-12.12-4.85-15.48c-2.22-1.33-4.66-.67-6.53.85-4.29,3.47-2.85,8.76-2.67,13.64q.3,7.88.19,15.76c-.13,9.86-.8,19.67-1.79,29.48-.11,1,.13,6.52-.53,7.09.1-1-.4-1.05-1.5-.28l-3.82.85c-4.46,1-8.89,2.06-13.32,3.2-9,2.32-19,3.56-26.39,9.67a1.27,1.27,0,0,0,.56,2.1c4.74,1.5,9.89,1.54,15.08,1q-5.69.93-11.37,1.94l-3.21.57a3.56,3.56,0,0,1-.79-.86c-1.4-1.77-2.17-4.11-3.42-6-2.39-3.61-5.78-7-9.82-8.58.47-1.41-.52-3.39-2.18-3.17a20.35,20.35,0,0,0-7.92,3.26,8.78,8.78,0,0,0-2.17,1.43l-1.29.89a39.49,39.49,0,0,0-7.35,6.23c-5.91,4-4.37,9.58-1.6,15.12C146.62,293.15,150.22,300.32,153.93,307.44Z" transform="translate(-26.61 -32.01)"/><polygon class="cls-3" points="211.28 237.97 247.34 216.33 247.34 151.78 247.34 138.29 211.28 159.93 211.28 237.97"/><polygon class="cls-2" points="247.34 138.29 216.18 99.53 188.82 65.48 152.75 87.12 211.28 159.93 247.34 138.29"/><path class="cls-2" d="M202.78,232.36a15.16,15.16,0,0,0-1.66-6.49l-10.86,6.27a15.36,15.36,0,0,0,4.79,4.69C199.32,239.29,202.78,237.29,202.78,232.36Z" transform="translate(-26.61 -32.01)"/><path class="cls-2" d="M195.05,219c-4.27-2.46-7.73-.46-7.73,4.47a16.37,16.37,0,0,0,2.94,8.7l10.86-6.27A16.44,16.44,0,0,0,195.05,219Z" transform="translate(-26.61 -32.01)"/><path class="cls-2" d="M167.1,192.61c8.24,4.75,14.91.9,14.91-8.61a30.53,30.53,0,0,0-4.44-14.81l-21.08,12.17A30.58,30.58,0,0,0,167.1,192.61Z" transform="translate(-26.61 -32.01)"/><path class="cls-2" d="M177.57,169.19a30.37,30.37,0,0,0-10.47-11c-8.23-4.75-14.91-.9-14.91,8.61a30.37,30.37,0,0,0,4.3,14.57Z" transform="translate(-26.61 -32.01)"/><path class="cls-3" d="M119.23,122.45l.23-.17Z" transform="translate(-26.61 -32.01)"/><path class="cls-3" d="M118.91,122.79a1.54,1.54,0,0,1,.17-.19A1.54,1.54,0,0,0,118.91,122.79Z" transform="translate(-26.61 -32.01)"/><path class="cls-3" d="M239.12,272.15a3,3,0,0,1-.56.24A2.78,2.78,0,0,0,239.12,272.15Z" transform="translate(-26.61 -32.01)"/><path class="cls-3" d="M118.65,123.18l.12-.22Z" transform="translate(-26.61 -32.01)"/><path class="cls-3" d="M118.46,123.61l.09-.24Z" transform="translate(-26.61 -32.01)"/><path class="cls-3" d="M123.34,126.65l54.91-4.91,57.14,71.08v74.87l-54.92,4.9-56.1-69.8L120,205.32l57.42,71.45a2.52,2.52,0,0,0,2,.93h.22l58.53-5.22a2.2,2.2,0,0,0,.37-.07,2.33,2.33,0,0,1-.59.08,2.5,2.5,0,0,1-1.29-4.64l3.79-2.28V193.35l-1.21.73a2.54,2.54,0,0,1-1.29.36,2.5,2.5,0,0,1-1.29-4.64l1.87-1.13L183.1,119.8l-2.45,1.47a2.54,2.54,0,0,1-1.29.36,2.5,2.5,0,0,1-1.29-4.64l.5-.3-47.11,4.21-9.33,5.6a2.5,2.5,0,0,1-3.43-.85,2.38,2.38,0,0,1-.35-1.35.13.13,0,0,0,0,.06V200.5l5-2.88Z" transform="translate(-26.61 -32.01)"/><path class="cls-3" d="M118.37,124.06l0-.24Z" transform="translate(-26.61 -32.01)"/><path class="cls-3" d="M168.35,156c-4.79-2.76-9.42-3.13-13-1s-5.62,6.29-5.62,11.82a31.52,31.52,0,0,0,3.47,13.61l4.34-2.51a26.43,26.43,0,0,1-2.81-11.1c0-3.67,1.11-6.33,3.12-7.49a5.26,5.26,0,0,1,2.65-.66,11.11,11.11,0,0,1,5.39,1.7,26.85,26.85,0,0,1,8.21,8l2.26-1.31a2.49,2.49,0,0,1,3.41.92h0A32.73,32.73,0,0,0,168.35,156Z" transform="translate(-26.61 -32.01)"/><path class="cls-3" d="M165.85,194.78a16.07,16.07,0,0,0,7.92,2.37,10.17,10.17,0,0,0,5.13-1.33c3.62-2.1,5.61-6.29,5.61-11.82a33,33,0,0,0-4.77-16.06,2.51,2.51,0,0,1-.92,3.41l-2.25,1.3A26.82,26.82,0,0,1,179.51,184c0,3.67-1.11,6.33-3.11,7.49s-4.87.79-8.05-1a27,27,0,0,1-8.36-8.22l-4.35,2.51A31.94,31.94,0,0,0,165.85,194.78Z" transform="translate(-26.61 -32.01)"/><path class="cls-3" d="M202.37,228l-2.53,1.47a10.83,10.83,0,0,1,.44,2.86c0,1.41-.38,2.47-1,2.84s-1.74.17-2.95-.53a10.69,10.69,0,0,1-2.26-1.83l-4.44,2.57A16.66,16.66,0,0,0,193.8,239a9.6,9.6,0,0,0,4.71,1.38,6.42,6.42,0,0,0,3.26-.85c2.23-1.29,3.51-3.9,3.51-7.17a17.63,17.63,0,0,0-1.91-7.59h0l-.07-.14A2.51,2.51,0,0,1,202.37,228Z" transform="translate(-26.61 -32.01)"/><path class="cls-3" d="M189.82,223.44c0-1.41.38-2.48,1-2.84a1.5,1.5,0,0,1,.76-.18,4.67,4.67,0,0,1,2.2.71,12.83,12.83,0,0,1,3.89,3.83l2.18-1.26a2.49,2.49,0,0,1,3.41.92,18.81,18.81,0,0,0-7-7.82c-2.83-1.63-5.73-1.82-8-.53s-3.51,3.9-3.51,7.17a17.74,17.74,0,0,0,2,7.79l4.34-2.51A12.73,12.73,0,0,1,189.82,223.44Z" transform="translate(-26.61 -32.01)"/><path class="cls-3" d="M276.11,169.05a2.09,2.09,0,0,1,.19.4A2.93,2.93,0,0,0,276.11,169.05Z" transform="translate(-26.61 -32.01)"/><path class="cls-3" d="M276.32,169.52a2.79,2.79,0,0,1,.1.39A2.79,2.79,0,0,0,276.32,169.52Z" transform="translate(-26.61 -32.01)"/><path class="cls-3" d="M216.72,99.63l-1.87,1.12,55.36,68.88,2.45-1.47a2.49,2.49,0,0,1,3.36.76,2,2,0,0,0-.12-.19l-29.33-36.49L244,133.7a2.45,2.45,0,0,1-1.25.34,2.5,2.5,0,0,1-1.25-4.67l1.86-1.07-26-32.38s0,0,0,0a4,4,0,0,1,.24.33A2.5,2.5,0,0,1,216.72,99.63Z" transform="translate(-26.61 -32.01)"/><path class="cls-3" d="M216.3,95.16l.14,0Z" transform="translate(-26.61 -32.01)"/><path class="cls-3" d="M215.72,95a1.08,1.08,0,0,1,.19,0A1.08,1.08,0,0,0,215.72,95Z" transform="translate(-26.61 -32.01)"/><path class="cls-3" d="M216.92,95.49l.08.07Z" transform="translate(-26.61 -32.01)"/><path class="cls-3" d="M275.24,172.44l-3.79,2.28v72.2l-31.06,18.64-3.79,2.28a2.5,2.5,0,0,0,1.29,4.64,2.33,2.33,0,0,0,.59-.08h.08a3,3,0,0,0,.56-.24l.06,0,36.06-21.64a2.49,2.49,0,0,0,1.21-2.14V185.23l-1.25.72a2.45,2.45,0,0,1-1.25.34,2.5,2.5,0,0,1-1.25-4.67l3.75-2.16V170.3a1.49,1.49,0,0,0,0-.21A2.48,2.48,0,0,1,275.24,172.44Z" transform="translate(-26.61 -32.01)"/><path class="cls-3" d="M122.13,126.5l9.33-5.6,26.23-15.74L204.8,101l9.34-5.6a2.44,2.44,0,0,1,1.18-.35.41.41,0,0,1-.11,0l-58.53,5.23a2.42,2.42,0,0,0-1.07.35l-36.06,21.64-.09.06-.23.17-.15.15a1.54,1.54,0,0,0-.17.19s-.09.11-.14.17l-.12.22a1.14,1.14,0,0,0-.1.19l-.09.24-.06.21,0,.24a1.94,1.94,0,0,0,0,.24,2.38,2.38,0,0,0,.35,1.35A2.5,2.5,0,0,0,122.13,126.5Z" transform="translate(-26.61 -32.01)"/><path class="cls-3" d="M204.8,101l-26.23,15.74-.5.3a2.5,2.5,0,0,0,1.29,4.64,2.54,2.54,0,0,0,1.29-.36l2.45-1.47,31.75-19,1.87-1.12a2.5,2.5,0,0,0,.85-3.43,4,4,0,0,0-.24-.33,2.42,2.42,0,0,0-.33-.31l-.08-.07a1.94,1.94,0,0,0-.48-.28l-.14,0a1.9,1.9,0,0,0-.39-.11,1.08,1.08,0,0,0-.19,0,2.61,2.61,0,0,0-.4,0,2.44,2.44,0,0,0-1.18.35Z" transform="translate(-26.61 -32.01)"/><path class="cls-3" d="M272.66,168.16l-2.45,1.47-31.74,19-1.87,1.13a2.5,2.5,0,0,0,1.29,4.64,2.54,2.54,0,0,0,1.29-.36l1.21-.73,31.06-18.63,3.79-2.28a2.48,2.48,0,0,0,1.19-2.35,1.09,1.09,0,0,0,0-.18,2.79,2.79,0,0,0-.1-.39.64.64,0,0,1,0-.07,2.09,2.09,0,0,0-.19-.4s0,0,0,0l-.07-.09A2.49,2.49,0,0,0,272.66,168.16Z" transform="translate(-26.61 -32.01)"/><path class="cls-3" d="M84.34,225.11l-.17-.05Z" transform="translate(-26.61 -32.01)"/><path class="cls-3" d="M94.65,220,120,205.32l4.38-2.53,31.27-18,4.35-2.51,16.58-9.58,2.25-1.3a2.51,2.51,0,0,0,.92-3.41h0a2.49,2.49,0,0,0-3.41-.92l-2.26,1.31-16.56,9.56-4.34,2.51-29.82,17.22-5,2.88-30.6,17.67-.13,2Z" transform="translate(-26.61 -32.01)"/><path class="cls-3" d="M82.44,223a2.09,2.09,0,0,1,0-.5A2.1,2.1,0,0,0,82.44,223Z" transform="translate(-26.61 -32.01)"/><polygon class="cls-3" points="58.3 193.18 58.31 193.18 58.32 193.18 58.31 193.18 58.3 193.18"/><path class="cls-3" d="M82.56,223.51a2,2,0,0,1-.08-.33A2,2,0,0,0,82.56,223.51Z" transform="translate(-26.61 -32.01)"/><path class="cls-3" d="M82.75,223.94s0,0,0,0l-.12-.24C82.69,223.79,82.71,223.87,82.75,223.94Z" transform="translate(-26.61 -32.01)"/><path class="cls-3" d="M83.79,224.91l-.18-.1Z" transform="translate(-26.61 -32.01)"/><path class="cls-3" d="M83.27,224.55l-.13-.11Z" transform="translate(-26.61 -32.01)"/><path class="cls-3" d="M240.62,132.79a2.52,2.52,0,0,0,2.17,1.25,2.45,2.45,0,0,0,1.25-.34l2.53-1.46,20.5-11.84a2.5,2.5,0,0,0-2.5-4.33L243.4,128.3l-1.86,1.07A2.51,2.51,0,0,0,240.62,132.79Z" transform="translate(-26.61 -32.01)"/><path class="cls-3" d="M82.44,223s0,.1,0,.16a2,2,0,0,0,.08.33l.09.21.12.24a3,3,0,0,0,.34.46l0,0,.13.11a2.78,2.78,0,0,0,.34.26l.18.1a2.5,2.5,0,0,0,.38.15l.17.05a2.24,2.24,0,0,0,.57.08H85l22.09-.52a2.5,2.5,0,1,0-.12-5l-12.3.29-7,.17.13-2,.57-8.06a2.5,2.5,0,1,0-5-.36l-.9,12.76h0A2.09,2.09,0,0,0,82.44,223Z" transform="translate(-26.61 -32.01)"/><path class="cls-3" d="M271.78,185a2.52,2.52,0,0,0,2.17,1.25,2.45,2.45,0,0,0,1.25-.34l1.25-.72,36-20.77.14-2-7,.17-29.07,16.79-3.75,2.16A2.51,2.51,0,0,0,271.78,185Z" transform="translate(-26.61 -32.01)"/><path class="cls-3" d="M194.05,232.84l5.79-3.34,2.53-1.47a2.51,2.51,0,0,0,.92-3.41h0a2.49,2.49,0,0,0-3.41-.92L197.69,225l-6.51,3.76-4.34,2.51-16,9.23a2.5,2.5,0,0,0,1.25,4.67,2.45,2.45,0,0,0,1.25-.34l16.25-9.38Z" transform="translate(-26.61 -32.01)"/><path class="cls-3" d="M312.42,164.46l-.56,8.06a2.49,2.49,0,0,0,2.31,2.67h.18a2.5,2.5,0,0,0,2.49-2.32l.9-12.76h0a2.08,2.08,0,0,0,0-.5c0-.05,0-.1,0-.15a1.87,1.87,0,0,0-.08-.34l-.09-.21c0-.08-.08-.17-.13-.25a1,1,0,0,0-.13-.18,1.88,1.88,0,0,0-.18-.24l0,0-.12-.1a2.31,2.31,0,0,0-.24-.2l-.19-.12a2.53,2.53,0,0,0-.23-.12l-.25-.1-.21-.06-.27,0-.24,0h-.12l-22.1.52a2.5,2.5,0,0,0,.12,5l12.31-.29,7-.17Z" transform="translate(-26.61 -32.01)"/></svg>